<svg xmlns="http://www.w3.org/2000/svg" width="320" height="165" fill="none" aria-labelledby="descId" role="img" viewBox="0 0 320 165"><title id="titleId"/><desc id="descId"/><style>.header{font:600 18px &apos;Segoe UI&apos;,Ubuntu,Sans-Serif;fill:#8b5cf6}@supports (-moz-appearance:auto){.header{font-size:15.5px}}.lang-name{font:400 11px &quot;Segoe UI&quot;,Ubuntu,Sans-Serif;fill:#e5e7eb}.stagger{opacity:0}</style><rect width="319" height="99%" x=".5" y=".5" fill="#0B0F14" stroke="#1F2937" stroke-opacity="0" data-testid="card-bg" rx="4.5"/><g data-testid="card-title"><g><text x="0" y="0" class="header" data-testid="header" transform="translate(25, 35) translate(0, 0)">Most Used Languages</text></g></g><g data-testid="main-card-body" transform="translate(0, 55)"><svg x="25" data-testid="lang-items"><mask id="rect-mask"><rect width="270" height="8" x="0" y="0" fill="#fff" rx="5"/></mask><rect width="187.41" height="8" x="0" y="0" fill="#3178c6" data-testid="lang-progress" mask="url(#rect-mask)"/><rect width="52.65" height="8" x="187.41" y="0" fill="#f1e05a" data-testid="lang-progress" mask="url(#rect-mask)"/><rect width="10.69" height="8" x="240.06" y="0" fill="#3572A5" data-testid="lang-progress" mask="url(#rect-mask)"/><rect width="10.64" height="8" x="250.75" y="0" fill="#639" data-testid="lang-progress" mask="url(#rect-mask)"/><rect width="15.57" height="8" x="261.39" y="0" fill="#012456" data-testid="lang-progress" mask="url(#rect-mask)"/><rect width="13.04" height="8" x="266.96" y="0" fill="#e34c26" data-testid="lang-progress" mask="url(#rect-mask)"/><g><g><g><g class="stagger" transform="translate(0, 25) translate(0, 0) translate(0, 0)"><circle cx="5" cy="6" r="5" fill="#3178c6"/><text x="15" y="10" class="lang-name" data-testid="lang-name">TypeScript 69.41%</text></g></g><g><g class="stagger" transform="translate(0, 25) translate(0, 0) translate(0, 25)"><circle cx="5" cy="6" r="5" fill="#f1e05a"/><text x="15" y="10" class="lang-name" data-testid="lang-name">JavaScript 19.50%</text></g></g><g><g class="stagger" transform="translate(0, 25) translate(0, 0) translate(0, 50)"><circle cx="5" cy="6" r="5" fill="#3572A5"/><text x="15" y="10" class="lang-name" data-testid="lang-name">Python 3.96%</text></g></g></g><g><g><g class="stagger" transform="translate(0, 25) translate(150, 0) translate(0, 0)"><circle cx="5" cy="6" r="5" fill="#639"/><text x="15" y="10" class="lang-name" data-testid="lang-name">CSS 3.94%</text></g></g><g><g class="stagger" transform="translate(0, 25) translate(150, 0) translate(0, 25)"><circle cx="5" cy="6" r="5" fill="#012456"/><text x="15" y="10" class="lang-name" data-testid="lang-name">PowerShell 2.06%</text></g></g><g><g class="stagger" transform="translate(0, 25) translate(150, 0) translate(0, 50)"><circle cx="5" cy="6" r="5" fill="#e34c26"/><text x="15" y="10" class="lang-name" data-testid="lang-name">HTML 1.13%</text></g></g></g></g></svg></g></svg>