<svg xmlns="http://www.w3.org/2000/svg" viewBox="0 0 128 128" role="img" aria-label="Prettier">
  <rect width="128" height="128" rx="24" fill="#1A2B34"/>
  <g fill="#56B3B4" transform="translate(16 28) scale(4)">
    <path d="M8.571 23.429A.571.571 0 0 1 8 24H2.286a.571.571 0 0 1 0-1.143H8c.316 0 .571.256.571.572zM8 20.57H6.857a.571.571 0 0 0 0 1.143H8a.571.571 0 0 0 0-1.143zm-5.714 1.143H4.57a.571.571 0 0 0 0-1.143H2.286a.571.571 0 0 0 0 1.143zM8 18.286H2.286a.571.571 0 0 0 0 1.143H8a.571.571 0 0 0 0-1.143zM16 16H5.714a.571.571 0 0 0 0 1.143H16A.571.571 0 0 0 16 16z"/>
  </g>
</svg>
