<svg xmlns="http://www.w3.org/2000/svg" viewBox="0 0 128 128" role="img" aria-label="Procreate">
  <rect width="128" height="128" rx="24" fill="#1C1C1E"/>
  <g transform="translate(8 10) scale(0.58)" fill-rule="evenodd" clip-rule="evenodd">
    <path d="M102.244 49.731c-2.434-3.043-4.057-4.057-4.461-3.043-1.217 3.45.609 8.723 6.086 16.228l-2.434 2.84c-18.46-7.303-29.007-3.042-31.645 12.982.204-.812-.202-1.826-.81-2.84-.406-.609-1.218-.811-1.827-.609-.811.204-1.42.609-1.622 1.623-.406 1.015-.406 2.23 0 3.651.406 1.623 1.216 2.637 2.435 2.839l2.027-.406.609-.405c.811 2.84 3.651 5.071 8.52 6.693 3.853 1.826 9.938 2.636 18.051 2.435 1.219-.204 2.436-.812 3.855-1.42 3.041-1.42 5.271-3.448 6.691-5.882 2.029-2.436 3.652-6.085 5.072-10.954 1.42-.203 3.043-.609 5.07-1.826 2.434-1.217 3.449-2.434 3.449-3.245 0-3.448-4.664-6.288-13.793-8.317-.81-3.65-2.634-7.097-5.273-10.344zm7.1 14.402c.205-.812.812-1.014 1.826-.812s1.623.812 1.42 1.419c-.203.812-.812 1.218-1.826 1.015-1.014-.404-1.42-.81-1.42-1.622z" fill="#516aaf"/>
    <path d="M96.566 92.935l-2.231-1.215-4.666-1.625-1.825-.202.608-.608c2.435-2.029 3.449-3.854 3.246-5.477-.203-1.826-1.623-3.65-4.462-5.881l-8.113 11.358c-.812 0-1.219.203-1.42 1.015-.203.608 0 1.216.608 1.622 3.246 2.434 8.316 3.855 15.416 4.057 1.624 0 2.637-.202 3.042-.812.811-.608.608-1.419-.203-2.232z" fill="#516aaf"/>
    <path d="M96.566 92.935l.608 1.218-.405 1.014c-.405.609-1.419.812-3.042.812-7.1-.202-12.17-1.623-15.416-4.057-.608-.405-.811-1.014-.608-1.622 0-.406.407-.812.811-.812h-2.028c-.405.405-.609 1.014-.405 1.825l1.42 1.826c2.231 1.623 5.273 2.637 9.736 3.447l6.49.812c2.029 0 3.246-.406 4.057-1.217.404-.609.811-1.015.811-1.827 0-1.014-.406-2.027-1.42-2.635-1.623-1.218-3.853-2.028-6.693-2.638 1.826-1.826 2.84-3.448 2.84-5.07v-.405c-.204-2.028-2.028-4.057-5.275-6.085l-.81.406c2.839 2.231 4.259 4.056 4.462 5.881.203 1.624-.811 3.448-3.246 5.477l-.608.608 1.825.202 4.666 1.625 2.23 1.215z" fill="#fff"/>
    <path d="M114.414 91.11c-.607-.608-1.217-.811-2.23-.811-5.883-.812-7.301-2.637-4.463-5.882 2.436-5.883 1.623-8.52-2.434-8.317-2.838.202-5.07 1.622-6.693 4.26-1.42 2.636-1.825 4.461-.607 5.881l3.043 4.058c1.824 2.028 3.854 3.042 5.881 3.042 4.26.608 6.896.203 7.709-1.014.403-.406.202-.811-.206-1.217z" fill="#516aaf"/>
  </g>
</svg>
